<?xml version="1.0" encoding="UTF-8"?>
<!-- Created with Inkscape (http://www.inkscape.org/) -->
<svg width="50mm" height="50mm" version="1.1" viewBox="0 0 50 50" xmlns="http://www.w3.org/2000/svg">
 <g transform="translate(-92.979 -115.56)">
  <path d="m120.54 143.81q-1.016-1.524-0.5588-2.7432 0.508-1.27 1.8288-2.1336t3.302-1.2192q2.032-0.3556 3.9624 0 3.2512 0.508 5.334 2.6924t2.7432 5.1308 0.1016 6.096q-0.6096 3.4544-2.5908 6.096-1.9304 2.6416-4.6736 4.1656-2.6924 1.524-6.0452 2.3368-3.302 0.8128-6.7056 0.8128-3.3528 0-6.604-0.6604-3.2004-0.6096-5.7912-1.778-2.54-1.1684-4.2672-2.8956-1.6764-1.7272-1.9812-3.7592-0.3556-2.1844 0.1524-4.4196 0.5588-2.286 1.3716-3.9116 0.8636-1.6764 1.7272-3.9116 0.9144-2.2352 1.1684-4.1656 0.254-2.032-0.254-4.3688-0.4572-2.3368-1.27-4.1148-0.762-1.8288-1.4732-3.9116-0.6604-2.1336-0.8128-3.6576-0.1016-1.5748 0.6604-3.3528 2.1844-4.064 8.2296-3.7084 1.0668 0.0508 4.2672 0.4572t5.2832 0.3556q1.6256-0.0508 5.6896-0.7112 4.1148-0.7112 5.7912-0.3048 1.6764 0.4572 2.7432 2.2352 1.1176 1.7272 1.27 3.9624 0.2032 2.1844-0.254 4.2672t-1.9304 3.4036q-1.4732 1.27-3.6576 1.0668-1.27-0.1016-2.1844-0.8128t-1.524-1.6256q-0.5588-0.9652-1.2192-1.8796-0.6096-0.9144-1.7272-1.6256-1.0668-0.7112-2.6416-0.8128-1.0668-0.1016-1.9304 0.2032-0.8128 0.3048-1.27 0.8636-0.4572 0.508-0.7112 1.1176-0.2032 0.5588-0.1016 1.1176t0.508 0.8128q0.7112 0.3556 1.1176 0.0508 0.4572-0.3048 1.1176-0.8636 0.7112-0.6096 1.1176-0.6096 1.4732-0.0508 2.0828 2.9464 0.6604 2.9464 0.0508 5.8928-0.5588 2.8956-2.0828 2.6924-0.508-0.0508-1.3208-0.8636-0.8128-0.8636-1.27-0.8128-0.7112 0.1524-1.0668 0.9652-0.3556 0.762-0.3048 1.8796 0.1016 1.8288 0.9144 3.7084t2.0828 2.9972q1.016 0.8636 1.9812 0.9144t1.4732-0.508 0.6604-1.3716-0.508-1.7272z" fill="#191919" stroke-width=".5" aria-label="E"/>
 </g>
</svg>
