<?xml version="1.0" encoding="UTF-8" standalone="no"?>
<svg
   version="1.1"
   viewBox="0 0 480.30873 169.03751"
   id="svg13"
   sodipodi:docname="logo.svg"
   width="480.30875"
   height="169.03751"
   inkscape:version="1.4 (86a8ad7, 2024-10-11)"
   xmlns:inkscape="http://www.inkscape.org/namespaces/inkscape"
   xmlns:sodipodi="http://sodipodi.sourceforge.net/DTD/sodipodi-0.dtd"
   xmlns="http://www.w3.org/2000/svg"
   xmlns:svg="http://www.w3.org/2000/svg">
  <defs
     id="defs13" />
  <sodipodi:namedview
     id="namedview13"
     pagecolor="#ffffff"
     bordercolor="#000000"
     borderopacity="0.25"
     inkscape:showpageshadow="2"
     inkscape:pageopacity="0.0"
     inkscape:pagecheckerboard="0"
     inkscape:deskcolor="#d1d1d1"
     inkscape:zoom="0.67780952"
     inkscape:cx="123.19095"
     inkscape:cy="123.19095"
     inkscape:window-width="1920"
     inkscape:window-height="1009"
     inkscape:window-x="-8"
     inkscape:window-y="828"
     inkscape:window-maximized="1"
     inkscape:current-layer="svg13" />
  <g
     id="g13"
     transform="translate(-191.42874,-200.1625)">
    <g
       id="Camada_1">
      <g
         class="cls-2"
         fill="#97a8ce"
         id="g5">
        <g
           id="g4">
          <path
             class="cls-4"
             d="m 250.8,311.7 c -1.8,-2.7 -2.3,-5.2 -1.4,-7.5 0.9,-2.2 2.5,-4.1 4.9,-5.7 2.4,-1.6 5.4,-2.7 9,-3.3 3.6,-0.6 7.2,-0.6 10.6,0 5.9,0.9 10.7,3.3 14.4,7.3 3.8,3.9 6.2,8.6 7.4,13.9 1.2,5.3 1.3,10.8 0.3,16.5 -1.1,6.2 -3.4,11.7 -6.9,16.5 -3.5,4.8 -7.7,8.5 -12.6,11.3 -4.9,2.7 -10.3,4.8 -16.3,6.3 -6,1.5 -12,2.2 -18.1,2.2 -6.1,0 -12,-0.6 -17.8,-1.7 -5.8,-1.1 -11,-2.8 -15.6,-4.9 -4.6,-2.1 -8.5,-4.7 -11.5,-7.8 -3.1,-3.1 -4.9,-6.5 -5.4,-10.2 -0.6,-3.9 -0.5,-7.9 0.5,-12 1,-4.1 2.2,-7.6 3.7,-10.6 1.5,-3 3.1,-6.5 4.7,-10.5 1.6,-4 2.6,-7.8 3.1,-11.3 0.5,-3.7 0.3,-7.6 -0.6,-11.8 -0.9,-4.2 -2,-7.9 -3.4,-11.2 -1.4,-3.2 -2.7,-6.8 -4,-10.6 -1.2,-3.8 -2,-7.1 -2.2,-9.9 -0.2,-2.8 0.3,-5.8 1.7,-9 3.9,-7.3 11.3,-10.7 22.2,-10 1.9,0 5.8,0.5 11.5,1.2 5.7,0.7 10.5,1.1 14.3,1 2.9,0 8.1,-0.8 15.4,-2 7.4,-1.2 12.6,-1.5 15.6,-0.8 3,0.8 5.5,2.8 7.5,6 2,3.2 3.1,6.7 3.4,10.7 0.3,4 0,7.8 -0.8,11.6 -0.8,3.8 -2.6,6.8 -5.2,9.1 -2.7,2.3 -5.9,3.3 -9.9,3 -2.3,-0.2 -4.3,-0.9 -5.9,-2.2 -1.6,-1.3 -3,-2.8 -4,-4.5 -1.1,-1.7 -2.2,-3.4 -3.3,-5 -1.1,-1.6 -2.7,-3.1 -4.7,-4.4 -2,-1.3 -4.4,-2 -7.2,-2.2 -1.9,-0.2 -3.6,0 -5.1,0.5 -1.5,0.5 -2.7,1.3 -3.5,2.3 -0.8,1 -1.4,2 -1.9,3 -0.4,1.1 -0.5,2.1 -0.3,3.1 0.2,1 0.6,1.7 1.4,2.2 1.3,0.6 2.3,0.7 3.1,0.1 0.8,-0.5 1.8,-1.3 3,-2.4 1.2,-1.1 2.2,-1.6 3,-1.6 2.7,0 4.5,2.5 5.7,7.9 1.1,5.4 1.2,10.7 0.1,15.9 -1.1,5.3 -3,7.7 -5.7,7.3 -0.9,0 -2.1,-0.9 -3.6,-2.4 -1.5,-1.5 -2.6,-2.2 -3.4,-2.1 -1.3,0.3 -2.2,1.1 -2.9,2.5 -0.6,1.4 -0.9,3.1 -0.8,5.1 0.2,3.3 1,6.6 2.5,10 1.5,3.4 3.3,6.1 5.6,8.1 1.8,1.6 3.6,2.4 5.4,2.5 1.7,0 3.1,-0.4 4,-1.4 0.9,-1 1.5,-2.2 1.8,-3.7 0.3,-1.5 -0.2,-3 -1.4,-4.7 z"
             id="path1" />
          <path
             class="cls-4"
             d="m 320.3,309.8 c -0.6,-4.7 -1.9,-9.3 -4,-13.8 -2.1,-4.5 -4.3,-8.5 -6.8,-12 -2.5,-3.5 -4.9,-6.9 -7.3,-10.2 -2.4,-3.3 -4.3,-6.7 -5.9,-10.2 -1.6,-3.5 -2.3,-6.8 -2.2,-10 0,-3.8 1.4,-7.1 4,-9.7 2.6,-2.6 5.7,-4.4 9.4,-5.5 3.7,-1.1 7.7,-1.6 12.1,-1.6 4.4,0 8.9,0.6 12.5,1.9 3.6,1.2 6.4,2.9 8.4,5 2.1,2.1 3.7,4.6 5,7.4 1.3,2.8 2,5.8 2.2,8.9 0.2,3.1 0.2,6.3 0,9.6 -0.6,6.7 -0.2,15.5 1.2,26.3 0.3,1.9 0.6,3.9 0.9,5.9 0.3,2 0.9,4.8 1.6,8.4 0.8,3.6 1.7,6.6 2.8,8.9 1.1,2.3 2.2,3.4 3.3,3.3 1.3,0 2.5,-1.1 3.6,-3.4 1.1,-2.2 2,-5.2 2.8,-8.8 0.8,-3.6 1.3,-6.4 1.7,-8.4 0.4,-2 0.7,-4 1,-6 1.5,-11.1 1.9,-19.8 1.4,-26.2 -0.3,-3.4 -0.3,-6.6 0,-9.6 0.3,-3 1,-6 2.2,-8.9 1.2,-2.9 2.8,-5.4 4.9,-7.5 2.1,-2.1 4.9,-3.7 8.5,-4.9 3.6,-1.2 7.7,-1.9 12.5,-1.9 4.8,0 8.4,0.5 12.1,1.6 3.7,1.1 6.8,2.9 9.4,5.5 2.6,2.6 4,5.8 4,9.7 0,3.1 -0.6,6.3 -2,9.6 -1.4,3.3 -3.2,6.5 -5.5,9.7 -2.2,3.2 -4.6,6.4 -6.9,9.7 -2.4,3.3 -4.6,7 -6.8,11.3 -2.2,4.2 -3.6,8.5 -4.5,12.8 -1,5 -1.4,11.2 -1.1,18.5 0.5,13.8 -2.1,24.5 -8,32.2 -5.9,7.6 -15.6,11.5 -29,11.5 -13.4,0 -23.1,-3.8 -29.1,-11.5 -5.9,-7.6 -8.6,-18.4 -8,-32.2 0.2,-5.6 0,-10.7 -0.6,-15.4 z"
             id="path2" />
          <path
             class="cls-4"
             d="m 483.7,311.7 c -1.8,-2.7 -2.3,-5.2 -1.4,-7.5 0.9,-2.2 2.5,-4.1 4.9,-5.7 2.4,-1.6 5.4,-2.7 9,-3.3 3.6,-0.6 7.2,-0.6 10.6,0 5.9,0.9 10.7,3.3 14.4,7.3 3.8,3.9 6.2,8.6 7.4,13.9 1.2,5.3 1.3,10.8 0.3,16.5 -1.1,6.2 -3.4,11.7 -6.9,16.5 -3.5,4.8 -7.7,8.5 -12.6,11.3 -4.9,2.7 -10.3,4.8 -16.3,6.3 -6,1.5 -12,2.2 -18.1,2.2 -6.1,0 -12,-0.6 -17.8,-1.7 -5.8,-1.1 -11,-2.8 -15.6,-4.9 -4.6,-2.1 -8.5,-4.7 -11.5,-7.8 -3.1,-3.1 -4.9,-6.5 -5.4,-10.2 -0.6,-3.9 -0.5,-7.9 0.5,-12 1,-4.1 2.2,-7.6 3.7,-10.6 1.5,-3 3.1,-6.5 4.7,-10.5 1.6,-4 2.6,-7.8 3.1,-11.3 0.5,-3.7 0.3,-7.6 -0.6,-11.8 -0.9,-4.2 -2,-7.9 -3.4,-11.2 -1.4,-3.2 -2.7,-6.8 -4,-10.6 -1.2,-3.8 -2,-7.1 -2.2,-9.9 -0.2,-2.8 0.3,-5.8 1.7,-9 3.9,-7.3 11.3,-10.7 22.2,-10 1.9,0 5.8,0.5 11.5,1.2 5.7,0.7 10.5,1.1 14.3,1 2.9,0 8.1,-0.8 15.4,-2 7.4,-1.2 12.6,-1.5 15.6,-0.8 3,0.8 5.5,2.8 7.5,6 2,3.2 3.1,6.7 3.4,10.7 0.3,4 0,7.8 -0.8,11.6 -0.8,3.8 -2.6,6.8 -5.2,9.1 -2.7,2.3 -5.9,3.3 -9.9,3 -2.3,-0.2 -4.3,-0.9 -5.9,-2.2 -1.6,-1.3 -3,-2.8 -4,-4.5 -1.1,-1.7 -2.2,-3.4 -3.3,-5 -1.1,-1.6 -2.7,-3.1 -4.7,-4.4 -2,-1.3 -4.4,-2 -7.2,-2.2 -1.9,-0.2 -3.6,0 -5.1,0.5 -1.5,0.5 -2.7,1.3 -3.5,2.3 -0.8,1 -1.4,2 -1.9,3 -0.4,1.1 -0.5,2.1 -0.3,3.1 0.2,1 0.6,1.7 1.4,2.2 1.3,0.6 2.3,0.7 3.1,0.1 0.8,-0.5 1.8,-1.3 3,-2.4 1.2,-1.1 2.2,-1.6 3,-1.6 2.7,0 4.5,2.5 5.7,7.9 1.1,5.4 1.2,10.7 0.1,15.9 -1.1,5.3 -3,7.7 -5.7,7.3 -0.9,0 -2.1,-0.9 -3.6,-2.4 -1.5,-1.5 -2.6,-2.2 -3.4,-2.1 -1.3,0.3 -2.2,1.1 -2.9,2.5 -0.6,1.4 -0.9,3.1 -0.8,5.1 0.2,3.3 1,6.6 2.5,10 1.5,3.4 3.3,6.1 5.6,8.1 1.8,1.6 3.6,2.4 5.4,2.5 1.7,0 3.1,-0.4 4,-1.4 0.9,-1 1.5,-2.2 1.8,-3.7 0.3,-1.5 -0.2,-3 -1.4,-4.7 z"
             id="path3" />
          <path
             class="cls-4"
             d="m 591.4,350 c -0.5,4 -2.3,7.5 -5.3,10.4 -3,2.9 -6.5,5 -10.7,6.2 -4.2,1.3 -8.6,1.9 -13.4,1.9 -4.8,0 -9.2,-0.7 -13.3,-2.1 -4.1,-1.4 -7.6,-3.5 -10.5,-6.5 -2.9,-3 -4.5,-6.5 -4.9,-10.6 -0.4,-3.7 0.2,-7.8 1.7,-12.3 1.5,-4.5 3.2,-8.7 5.2,-12.5 2,-3.8 3.8,-8.3 5.4,-13.7 1.6,-5.3 2.3,-10.4 2.1,-15.4 -0.2,-4.3 -1.2,-9 -3,-14.1 -1.8,-5.1 -3.6,-9.9 -5.2,-14.4 -1.6,-4.5 -2.4,-8.2 -2.2,-11.3 0.5,-7 5.9,-12.2 16.5,-15.4 5.9,-1.8 13.2,-2.9 21.8,-3.2 8.6,-0.3 17.1,0.4 25.5,2.1 7.7,1.6 14.2,4.7 19.6,9.1 5.4,4.4 9.1,9.1 11,14.2 2,5.1 2.5,10.2 1.7,15.4 -0.8,5.2 -3.2,9.6 -7,13 -2,1.8 -3.5,3.4 -4.5,4.6 -1,1.2 -1.7,2.7 -2.2,4.3 -0.5,1.6 -0.3,3.3 0.5,5.1 0.8,1.8 2.2,3.9 4.3,6.2 2.3,2.7 7,6.4 14.1,11.1 7.1,4.8 12,8.7 14.7,11.8 3.2,3.7 4.7,8.2 4.4,13.7 -0.3,5.5 -2.3,9.9 -6,13.2 -4.7,4.3 -11.1,6.8 -19.2,7.6 -8.1,0.8 -15.2,-0.5 -21.1,-3.8 -3.5,-1.8 -6.3,-4.3 -8.4,-7.3 -2.1,-3 -3.6,-6.4 -4.5,-10.2 -0.9,-3.8 -1.6,-7.5 -2.2,-11.3 -0.5,-3.8 -1.2,-8 -2.1,-12.6 -0.8,-4.7 -1.9,-8.7 -3.2,-12.1 -1.6,-4.2 -3.6,-6.5 -6.2,-7 -2.3,-0.5 -3.7,0.8 -4.1,3.7 -0.6,3.6 0.5,8.6 3.3,15 1.8,4.3 3.2,7.6 4.1,9.9 0.9,2.3 1.7,5.1 2.5,8.4 0.7,3.2 1,6.1 0.7,8.6 z m -15.6,-73.7 c 1,4.3 2.8,5.4 5.4,3.2 2.6,-2 4.3,-5.4 5.4,-10 1.2,-5.8 -0.1,-9.2 -4,-10.3 -0.7,-0.3 -1.6,-0.4 -2.6,-0.4 -1.6,0 -2.9,0.8 -3.8,2.3 -0.9,1.5 -1.3,3.4 -1.2,5.6 0,2.2 0.1,4.1 0.3,5.7 0.1,1.6 0.3,2.9 0.6,4 z"
             id="path4" />
        </g>
      </g>
      <g
         fill="#ffffff"
         id="g12">
        <path
           class="cls-5"
           d="m 561.5,204.9 c 1.6,-0.3 2.6,0.4 2.9,2.1 0.3,1.5 0,3.1 -0.9,4.9 -0.7,1.3 -1.4,2.1 -2.1,2.2 -0.6,0.1 -0.9,-0.2 -1.1,-0.8 0,-0.4 0,-0.6 0,-0.9 0,0 0.2,-0.4 0.6,-0.9 0.3,-0.4 0.6,-1 0.8,-1.8 0.2,-0.5 0.2,-0.9 0.2,-1.2 0,-0.3 -0.3,-0.5 -0.7,-0.4 -0.4,0 -1,0.6 -1.8,1.4 -1.2,1.4 -2.3,3.4 -3.2,6 -1,2.7 -1.3,4.8 -1.1,6.2 0,0.5 0.3,0.8 0.6,1.1 0.5,0.5 1.1,0.6 1.7,0.5 1.3,-0.3 2.7,-1.4 4.2,-3.3 1.2,-1.7 2.2,-3.3 3,-4.9 0.4,-0.9 0.8,-1.3 1.2,-1.4 0.2,0 0.5,0 0.7,0.2 0.2,0.2 0.3,0.4 0.4,0.6 0.1,0.8 -0.5,2.4 -2.1,5 -2.4,4.1 -4.9,6.4 -7.5,6.9 -1.5,0.3 -2.8,0 -3.8,-1 -0.7,-0.7 -1.2,-1.6 -1.4,-2.7 -0.4,-2.1 0,-4.8 1.2,-8 1.2,-3 2.8,-5.6 4.7,-7.7 1.1,-1.2 2.2,-1.9 3.2,-2.1 z"
           id="path5" />
        <path
           class="cls-5"
           d="m 579.1,217.5 c -0.7,1.2 -1.3,2.3 -2,3.1 -1.3,1.7 -2.6,2.5 -3.9,2.5 -1.1,0 -2,-0.5 -2.7,-1.6 -0.4,-0.7 -0.6,-1.5 -0.6,-2.5 0,-2.3 0.7,-4.9 2.1,-7.8 1.6,-3.2 3.5,-5.6 5.8,-7.3 1.5,-1.1 3,-1.7 4.4,-1.7 0.9,0 1.6,0.2 2.2,0.8 0.5,0.5 0.8,1 0.8,1.6 0,0.5 -0.2,1.1 -0.5,1.9 0.3,0.4 0.5,0.8 0.5,1.2 0,0.4 -0.3,1.2 -0.8,2.2 -0.6,1 -1.2,2.4 -1.8,4.1 -0.6,1.8 -0.9,3.3 -0.9,4.4 0,0.9 0.3,1.6 0.8,2.2 0.1,0.1 0.6,0.4 1.3,0.7 0.5,0.2 0.8,0.7 0.8,1.3 0,0.4 -0.1,0.7 -0.4,1 -0.3,0.3 -0.7,0.4 -1.1,0.4 -1.1,0 -2.1,-0.5 -3,-1.5 -0.7,-0.8 -1,-1.8 -1.1,-3.1 0,-0.4 0,-1.1 0,-2.1 z m 3.8,-10.4 c -0.3,-0.5 -0.5,-0.8 -0.8,-1 -0.3,-0.2 -0.6,-0.3 -1,-0.3 -1.6,0 -3.3,1.5 -5.1,4.3 -2,3.1 -3,5.8 -3,7.9 0,0.5 0.1,0.9 0.3,1.2 0.2,0.3 0.5,0.4 0.9,0.4 1,0 2.2,-1.1 3.5,-3.3 0.7,-1.2 1.6,-2.9 2.7,-5.3 0.7,-1.5 1.2,-2.5 1.6,-3 0.2,-0.3 0.5,-0.6 0.9,-0.9 z"
           id="path6" />
        <path
           class="cls-5"
           d="m 603.1,204 c 1.3,0.2 2.2,0.6 2.8,1.2 0.6,0.6 0.8,1.3 0.6,2.2 -0.2,1.2 -0.9,2.3 -2,3.3 -1.1,0.9 -2.5,1.6 -4.4,2 -1,0.2 -1.8,0.2 -2.5,0.1 -0.9,-0.1 -1.2,-0.6 -1.1,-1.4 0,-0.5 0.4,-0.9 0.9,-1.1 0.1,0 0.9,0 2.2,-0.2 0.8,0 1.6,-0.3 2.3,-0.7 0.6,-0.4 1,-0.9 1.1,-1.4 0,-0.4 0,-0.8 -0.2,-1 -0.2,-0.2 -0.6,-0.4 -1.1,-0.5 -1.2,-0.2 -2.6,0 -4.2,0.8 -1.9,0.8 -2.9,2 -3.2,3.5 -0.2,1.1 0.1,2.5 1,4.3 0.9,2 1.3,3.6 1.1,4.8 -0.3,1.8 -1.4,3.1 -3.2,3.9 -1.1,0.5 -2.3,0.6 -3.6,0.4 -2,-0.3 -3.4,-1.3 -4.2,-2.9 -0.6,-1.1 -0.7,-2.4 -0.5,-3.8 0.3,-1.6 0.9,-2.9 1.9,-3.9 0.7,-0.6 1.3,-0.9 1.9,-0.8 0.5,0 0.7,0.3 0.7,0.8 0,0.2 -0.2,0.4 -0.4,0.7 -0.6,0.8 -1,1.8 -1.2,3 -0.2,1 0,1.9 0.7,2.8 0.5,0.7 1.2,1.2 2.1,1.3 0.8,0.1 1.5,0 2,-0.5 0.5,-0.4 0.7,-0.9 0.9,-1.6 0.1,-0.9 -0.2,-2.1 -0.9,-3.6 -1,-2.1 -1.4,-4 -1.2,-5.5 0.3,-2.1 1.8,-3.7 4.3,-4.9 2.5,-1.2 4.9,-1.5 7.4,-1.1 z"
           id="path7" />
        <path
           class="cls-5"
           d="m 618,209 c -2,1.5 -4,3.4 -5.9,5.5 -2.8,3 -4.5,5.3 -5.1,7.1 -0.2,0.5 -0.2,0.9 0,1.2 0.1,0.3 0.4,0.6 0.8,0.7 1,0.3 2.5,-0.2 4.6,-1.5 1.3,-0.8 2.5,-1.7 3.6,-2.6 0.6,-0.5 1.1,-0.7 1.6,-0.6 0.3,0 0.4,0.3 0.6,0.5 0,0.2 0.1,0.4 0,0.6 -0.3,0.7 -1.8,2 -4.6,3.9 -3.4,2.2 -6,3 -7.9,2.4 -1,-0.4 -1.7,-1.1 -2,-2.3 -0.2,-0.7 -0.1,-1.7 0.3,-2.8 0.8,-2.4 2.5,-5 5,-7.7 0.6,-0.7 2.2,-2.3 4.8,-4.8 -0.6,0 -1,-0.1 -1.3,-0.2 -0.4,-0.1 -0.7,-0.4 -1,-0.7 -0.3,-0.4 -0.4,-0.9 -0.3,-1.3 0.2,-0.5 0.6,-0.8 1.3,-0.9 0.2,0 1,0.1 2.3,0.4 0.5,0 1.3,0.1 2.3,0.2 1.1,-1 2.9,-2.3 5.2,-3.9 1.3,-0.9 2.2,-1.4 2.6,-1.7 0.7,-0.3 1.2,-0.4 1.5,-0.3 0.3,0 0.5,0.3 0.6,0.7 0.1,0.3 0.2,0.6 0,0.9 -0.2,0.5 -1.1,1.3 -2.7,2.5 -1.1,0.7 -1.9,1.3 -2.5,1.8 2.4,0.2 4.1,0.4 5.1,0.8 1.1,0.4 1.5,1 1.2,1.9 -0.2,0.5 -0.5,0.7 -0.9,0.8 -0.2,0 -0.8,0 -1.7,-0.2 -0.3,-0.1 -2,-0.3 -4.9,-0.5 -0.8,0 -1.6,0 -2.4,0 z"
           id="path8" />
        <path
           class="cls-5"
           d="m 630.2,216.1 c 0.3,0.2 0.5,0.4 0.6,0.8 0,0.3 0,0.5 0,0.7 -0.2,0.3 -0.7,0.8 -1.7,1.3 -3.5,2 -6.1,3.8 -8,5.3 -1.9,1.6 -3.7,3.2 -5.5,5 -0.8,0.8 -1.5,1 -2.1,0.7 -0.4,-0.2 -0.6,-0.5 -0.7,-0.9 0,-0.3 0,-0.7 0,-0.9 0.3,-0.6 1.8,-2.1 4.7,-4.7 2.2,-2 5.1,-4 8.8,-6 1.2,-0.7 2,-1.1 2.5,-1.2 0.5,-0.2 1,-0.2 1.3,0 z m 10.6,-7.7 c 0.8,0.4 1,1.1 0.6,1.9 -0.4,0.8 -1.3,1.5 -2.6,2 -1.3,0.5 -2.2,0.6 -3,0.2 -0.4,-0.2 -0.6,-0.5 -0.7,-0.8 -0.1,-0.4 0,-0.7 0.1,-1.1 0.5,-0.9 1.4,-1.6 2.9,-2.1 1.1,-0.4 2,-0.4 2.5,-0.1 z"
           id="path9" />
        <path
           class="cls-5"
           d="m 631.3,226.4 c -1.4,1 -2.6,1.9 -3.4,2.5 -0.8,0.7 -1.3,1.2 -1.6,1.5 -0.3,0.4 -0.2,0.8 0.2,1.1 0.6,0.4 1.8,0.4 3.6,-0.2 0.9,-0.3 2.3,-0.8 4.2,-1.7 0.8,-0.3 1.3,-0.4 1.8,-0.1 0.5,0.3 0.5,0.7 0.2,1.1 -0.5,0.8 -2.4,1.7 -5.7,2.8 -3.4,1.2 -5.9,1.3 -7.4,0.2 -0.7,-0.4 -1,-1.1 -1.1,-1.9 0,-0.6 0.1,-1.2 0.5,-1.8 0.7,-1 1.9,-2.1 3.6,-3.5 1.7,-1.4 4,-2.9 6.9,-4.6 7.2,-4.3 13.8,-7.5 19.7,-9.5 4.7,-1.6 7.9,-1.9 9.5,-0.8 0.5,0.4 0.8,0.8 0.9,1.5 0,0.6 0,1.2 -0.4,1.7 -1.6,2.5 -6.5,5.1 -14.7,7.9 -3.7,1.2 -7.7,2.2 -12.1,2.9 -1.2,0.2 -2.7,0.4 -4.7,0.7 z m 4.7,-2.9 c 5.7,-0.7 11.6,-2.5 17.7,-5.3 3.1,-1.5 5,-2.6 5.5,-3.4 0.3,-0.4 0.2,-0.7 -0.1,-0.9 -1,-0.6 -4,0.1 -9.1,2.2 -4.2,1.7 -8.9,4.2 -14,7.4 z"
           id="path10" />
        <path
           class="cls-5"
           d="m 646.5,234.7 c 2.2,0 4.3,0 6.2,0.3 2.4,0.4 3.9,0.9 4.5,1.5 0.3,0.2 0.4,0.6 0.4,1 0,0.5 0,0.9 -0.4,1.2 -0.4,0.4 -1.3,0.7 -2.8,1 -2.9,0.4 -5.3,1 -7.3,1.8 -1.7,0.6 -2.8,1.1 -3.2,1.6 -0.4,0.4 -0.4,0.8 0,1.2 0.8,0.8 3.6,0.7 8.3,-0.4 1,-0.2 1.6,-0.2 1.9,0.1 0.3,0.3 0.3,0.6 0,1 -0.6,0.6 -2.2,1.2 -5,1.7 -2.4,0.5 -4.5,0.6 -6.4,0.3 -1.3,-0.2 -2.2,-0.6 -2.9,-1.2 -0.7,-0.6 -0.8,-1.4 -0.6,-2.2 0.2,-0.5 0.4,-1 0.8,-1.4 1.3,-1.3 3.3,-2.4 5.9,-3.2 0.6,-0.2 2.4,-0.7 5.4,-1.5 -4.6,-1.4 -10.5,-0.6 -17.6,2.5 -0.8,0.4 -1.4,0.4 -1.8,0 -0.3,-0.3 -0.4,-0.6 -0.4,-1 0,-0.4 0.2,-0.7 0.5,-1 0.5,-0.5 2.3,-1.4 5.6,-2.8 6,-2.6 11.2,-4.6 15.7,-6.1 4.5,-1.5 9.3,-3 14.3,-4.4 1.2,-0.3 2.1,-0.5 2.6,-0.6 0.5,0 0.9,0.1 1.2,0.4 0.3,0.3 0.4,0.6 0.3,1.1 0,0.4 -0.2,0.7 -0.5,0.9 -0.4,0.4 -1.2,0.8 -2.4,1 -4.1,0.9 -8.4,2.1 -12.9,3.6 -4.9,1.6 -8.1,2.7 -9.6,3.5 z"
           id="path11" />
        <path
           class="cls-5"
           d="m 669.3,249.7 c 1,1.4 0.6,2.7 -1.1,3.9 -2.3,1.6 -5.9,2.6 -10.9,3 -5.4,0.4 -8.9,-0.5 -10.4,-2.7 -0.7,-1 -0.8,-2.1 -0.2,-3.2 0.3,-0.6 0.8,-1.1 1.4,-1.5 2.2,-1.6 5.1,-2.5 8.8,-2.8 3.4,-0.3 6.4,0 9.1,1 1.6,0.6 2.7,1.3 3.3,2.2 z m -11.6,4.2 c 0,-0.7 0.2,-1.1 0.3,-1.2 0.1,0 0.7,0 1.7,0 2.8,0.3 4.8,0.1 5.8,-0.6 0.1,0 0.2,-0.2 0.3,-0.4 0.2,-0.3 0.1,-0.6 0,-0.9 -0.4,-0.6 -1.5,-1 -3.3,-1.3 -2.3,-0.4 -4.5,-0.5 -6.5,-0.1 -2.3,0.3 -3.9,0.9 -5,1.7 -0.3,0.2 -0.5,0.5 -0.6,0.8 -0.2,0.4 -0.1,0.8 0.1,1.2 0.6,0.8 1.8,1.3 3.7,1.3 0.8,0 1.6,0 2.3,-0.1 0.7,-0.1 1.1,-0.2 1.1,-0.2 z"
           id="path12" />
      </g>
    </g>
  </g>
</svg>
